HIERARCHY
ROOT hip
{
	OFFSET 0.000000 0.000000 0.000000 
	CHANNELS 6 Xposition Yposition Zposition Xrotation Zrotation Yrotation
	JOINT abdomen
	{
		OFFSET 0.000000 3.402643 0.000000 
		CHANNELS 3 Xrotation Zrotation Yrotation
		JOINT chest
		{
			OFFSET 0.000000 8.438565 -0.680529 
			CHANNELS 3 Xrotation Zrotation Yrotation
			JOINT neck
			{
				OFFSET 0.000000 10.207942 -0.272212 
				CHANNELS 3 Xrotation Zrotation Yrotation
				JOINT head
				{
					OFFSET 0.000000 3.130431 0.000000 
					CHANNELS 3 Xrotation Zrotation Yrotation
					End Site
					{
						OFFSET 0.000000 3.130435 0.000000 
					}
				}
			}
			JOINT lCollar
			{
				OFFSET 3.470700 6.669187 -0.816635 
				CHANNELS 3 Yrotation Zrotation Xrotation
				JOINT lShldr
				{
					OFFSET 3.198488 0.000000 0.000000 
					CHANNELS 3 Zrotation Yrotation Xrotation
					JOINT lForeArm
					{
						OFFSET 10.139888 0.000000 0.000000 
						CHANNELS 3 Yrotation Zrotation Xrotation
						JOINT lHand
						{
							OFFSET 8.370511 0.000000 0.000000 
							CHANNELS 3 Zrotation Yrotation Xrotation
							End Site
							{
								OFFSET 4.083176 0.000000 0.000000 
							}
						}
					}
				}
			}
			JOINT rCollar
			{
				OFFSET -3.470700 6.669187 -0.816635 
				CHANNELS 3 Yrotation Zrotation Xrotation
				JOINT rShldr
				{
					OFFSET -3.198488 0.000000 0.000000 
					CHANNELS 3 Zrotation Yrotation Xrotation
					JOINT rForeArm
					{
						OFFSET -10.139888 0.000000 0.000000 
						CHANNELS 3 Yrotation Zrotation Xrotation
						JOINT rHand
						{
							OFFSET -8.370511 0.000000 0.000000 
							CHANNELS 3 Zrotation Yrotation Xrotation
							End Site
							{
								OFFSET -4.083176 0.000000 0.000000 
							}
						}
					}
				}
			}
		}
	}
	JOINT lThigh
	{
		OFFSET 5.308129 -1.633274 1.361059 
		CHANNELS 3 Xrotation Zrotation Yrotation
		JOINT lShin
		{
			OFFSET -2.041588 -20.007561 0.000000 
			CHANNELS 3 Xrotation Zrotation Yrotation
			JOINT lFoot
			{
				OFFSET 0.000000 -19.190928 -1.224953 
				CHANNELS 3 Xrotation Yrotation Zrotation
				End Site
				{
					OFFSET 0.000000 -2.449906 4.627600 
				}
			}
		}
	}
	JOINT rThigh
	{
		OFFSET -5.308129 -1.633274 1.361059 
		CHANNELS 3 Xrotation Zrotation Yrotation
		JOINT rShin
		{
			OFFSET 2.041588 -20.007561 0.000000 
			CHANNELS 3 Xrotation Zrotation Yrotation
			JOINT rFoot
			{
				OFFSET 0.000000 -19.190928 -1.224953 
				CHANNELS 3 Xrotation Yrotation Zrotation
				End Site
				{
					OFFSET 0.000000 -2.449906 4.627600 
				}
			}
		}
	}
}
MOTION
Frames: 6
Frame Time: 0.033333
-0.346806 52.821590 0.589750 -2.314453 -2.832031 -33.828125 40.102158 -9.219929 -1.350335 -11.601563 14.169923 8.505859 51.553619 8.070152 2.616707 -80.644531 -11.269530 -2.794878 2.000000 -2.000000 0.000000 -55.585941 4.921875 -4.765625 -52.945927 -1.436727 -2.210947 -17.156277 56.079338 -10.832754 -2.000000 2.000000 0.000000 66.171875 -13.447266 -14.875316 53.117275 1.027727 -2.411172 9.886698 -47.766956 -11.920811 -15.348026 11.169765 -5.730303 9.147162 -5.464645 -1.465017 14.745422 12.953367 -7.582797 5.228552 -1.833765 -19.405910 3.747567 5.860301 0.315909 0.454027 -9.089691 2.305844 
-0.708503 52.608078 1.283638 -1.943359 -3.691406 -35.235004 41.086262 -8.897846 -1.957980 -12.773438 15.292970 8.498671 51.553619 8.070152 2.616707 -79.042969 -11.425780 -1.611328 2.000000 -2.000000 0.000000 -56.669922 6.035157 -4.013672 -52.931370 -1.436248 -2.034960 -15.116395 56.724545 -10.258256 -2.000000 2.000000 0.000000 65.576172 -12.851563 -14.992409 53.290413 1.227355 -2.311378 7.895618 -47.003178 -12.127536 -15.183159 11.404881 -6.627301 7.548360 -5.458140 -1.483237 15.476232 12.709834 -7.302942 4.672537 -1.794431 -18.332619 7.075534 5.821560 0.835246 -1.826038 -8.641621 1.952310 
-1.272123 52.394558 2.209201 -1.767578 -4.394531 -36.611328 41.155067 -8.854342 -2.379727 -13.281251 15.830078 8.671875 51.553619 8.070152 2.616707 -76.914063 -10.849608 -1.240235 2.000000 -2.000000 0.000000 -56.718750 7.470703 -3.271484 -52.589840 -1.436817 -2.044705 -13.016127 57.031197 -9.260921 -2.000000 2.000000 0.000000 65.703125 -12.685547 -14.816596 53.466198 1.227355 -2.311378 6.488434 -47.010132 -12.130139 -14.832932 11.659512 -7.501067 6.491710 -5.329031 -1.319828 15.775764 12.141533 -7.090325 4.816101 -1.764884 -17.466013 10.954717 5.747851 1.048073 -4.809227 -7.974895 2.092358 
-1.984602 52.260124 3.332654 -1.611328 -4.921875 -37.861328 40.348434 -9.376812 -2.851878 -13.125000 15.478517 8.811200 51.553619 8.070152 2.616707 -74.882813 -9.541015 -1.767578 2.000000 -2.000000 0.000000 -55.625000 9.462891 -1.512064 -52.427208 -1.297400 -2.170182 -11.322820 57.318825 -8.988148 -2.000000 2.000000 0.000000 66.289063 -13.095703 -14.482422 53.117275 1.027727 -2.411172 8.317279 -48.950951 -11.874963 -14.489204 11.941603 -8.720749 6.505273 -5.849514 -1.029684 15.191964 11.956359 -6.476736 4.758784 -1.833173 -16.757431 14.664017 5.640105 1.443832 -6.396425 -7.124205 2.445313 
-2.766282 52.165234 4.498489 -1.425781 -5.097656 -38.575089 39.160366 -9.882132 -3.037909 -12.822267 14.775392 8.886720 51.553619 8.070152 2.616707 -73.408203 -8.124998 -2.286537 2.000000 -2.000000 0.000000 -54.433594 10.947265 -0.906348 -52.414074 -1.427068 -2.045274 -9.738360 57.659725 -7.854376 -2.000000 2.000000 0.000000 67.304688 -14.140626 -13.505859 52.221481 1.178707 -2.147972 12.943735 -51.324936 -11.920735 -15.316274 11.783927 -9.135604 11.967426 -5.192909 -2.044609 12.659245 12.340644 -8.167415 5.085475 -2.275131 -16.251974 18.024849 5.533724 2.125038 -7.044610 -6.725328 2.653374 
-3.481165 52.188953 5.613429 -1.240234 -4.921875 -38.945316 37.599506 -10.624554 -3.148428 -12.333985 14.062501 8.984375 51.553619 8.070152 2.616707 -72.910156 -7.207030 -2.919922 2.000000 -2.000000 0.000000 -53.710938 10.732421 -1.093750 -52.589840 -1.436817 -2.044705 -10.135436 57.693913 -8.688786 -2.000000 2.000000 0.000000 68.183594 -15.156250 -13.066406 51.875149 1.198290 -1.980597 18.307737 -53.894623 -12.702367 -14.292422 11.862734 -10.115639 13.572896 -5.729093 -1.784685 11.155390 12.426658 -9.413357 5.438544 -2.920433 -15.801439 20.668140 5.443332 2.421260 -6.304226 -6.435977 3.268754 
